{"title":"Everyone's Hero 2006 DVDrip English/Dutch Klam","uid":6176331,"size":1593784744,"categoryP":"video","categoryS":"movies","magnet":"?xt=urn:btih:e2c5991485e4ae13802d8db66ba598d35d8c2867&amp;dn=Everyone%5C%27s+Hero+2006+DVDrip+English%2FDutch+Klam&amp;tr=udp%3A%2F%2Ftracker.openbittorrent.com%3A80&amp;tr=udp%3A%2F%2Fopen.demonii.com%3A1337&amp;tr=udp%3A%2F%2Ftracker.coppersurfer.tk%3A6969&amp;tr=udp%3A%2F%2Fexodus.desync.com%3A6969","seeders":0,"leechers":1,"uploader":"Klambake","files":-1,"time":1297783679,"description":"[img]http://img602.imageshack.us/img602/1932/38008.jpg[/img]\n\nEnglish and Dutch spoken Yes/No\n\nWith the voices of: Jake T. Austin, Mandy Patinkin and Whoopi Goldberg\n\nA young boy named Yankee Irving finds himself at an extraordinary crossroads: He has a chance to be a hero - and make a difference against incredible odds - or he can play it safe. With faith in himself instilled by his family, he teams up with a sassy young girl and some off-the-wall sidekicks and embarks on a sometimes perilous, often funny, cross-country quest. In the process, he restores his family's honor, befriends the world's biggest sports superstar, and reveals the hero within.\n\nGeneral:\n\nComplete name                    : Everyone's Hero.avi\nFormat                           : AVI\nFormat/Info                      : Audio Video Interleave\nFile size                        : 1.48 GiB\nDuration                         : 1h 23mn\nOverall bit rate                 : 2 551 Kbps\n\nVideo:\n\nFormat                           : MPEG-4 Visual\nFormat profile                   : Simple@L3\nFormat settings, BVOP            : No\nFormat settings, QPel            : No\nFormat settings, GMC             : No warppoints\nFormat settings, Matrix          : Default (H.263)\nCodec ID                         : XVID\nCodec ID/Hint                    : XviD\nDuration                         : 1h 23mn\nBit rate                         : 1 638 Kbps\nWidth                            : 704 pixels\nHeight                           : 396 pixels\nDisplay aspect ratio             : 16:9\nFrame rate                       : 25.000 fps\nColor space                      : YUV\nChroma subsampling               : 4:2:0\nBit depth                        : 8 bits\nScan type                        : Progressive\nBits/(Pixel*Frame)               : 0.235\nStream size                      : 976 MiB (64%)\nWriting library                  : XviD 1.1.2 (UTC 2006-11-01)\n\nAudio 1:\n\nFormat                           : AC-3\nFormat/Info                      : Audio Coding 3\nMode extension                   : CM (complete main)\nCodec ID                         : 2000\nDuration                         : 1h 23mn\nBit rate mode                    : Constant\nBit rate                         : 448 Kbps\nChannel(s)                       : 6 channels\nChannel positions                : Front: L C R, Side: L R, LFE\nSampling rate                    : 48.0 KHz\nBit depth                        : 16 bits\nStream size                      : 267 MiB (18%)\nAlignment                        : Aligned on interleaves\nInterleave, duration             : 32 ms (0.80 video frame)\n\nAudio 2:\n\nFormat                           : AC-3\nFormat/Info                      : Audio Coding 3\nMode extension                   : CM (complete main)\nCodec ID                         : 2000\nDuration                         : 1h 23mn\nBit rate mode                    : Constant\nBit rate                         : 448 Kbps\nChannel(s)                       : 6 channels\nChannel positions                : Front: L C R, Side: L R, LFE\nSampling rate                    : 48.0 KHz\nBit depth                        : 16 bits\nStream size                      : 267 MiB (18%)\nAlignment                        : Aligned on interleaves\nInterleave, duration             : 32 ms (0.80 video frame)\n\n","torrent":{"xt":"urn:btih:e2c5991485e4ae13802d8db66ba598d35d8c2867","amp;dn":"Everyone%5C%27s+Hero+2006+DVDrip+English%2FDutch+Klam","amp;tr":["udp%3A%2F%2Ftracker.openbittorrent.com%3A80","udp%3A%2F%2Fopen.demonii.com%3A1337","udp%3A%2F%2Ftracker.coppersurfer.tk%3A6969","udp%3A%2F%2Fexodus.desync.com%3A6969"],"infoHash":"e2c5991485e4ae13802d8db66ba598d35d8c2867","infoHashBuffer":{"type":"Buffer","data":[226,197,153,20,133,228,174,19,128,45,141,182,107,165,152,211,93,140,40,103]},"announce":[],"urlList":[]}}